<?xml version="1.0" encoding="iso-8859-1"?>
<!-- Generator: Adobe Illustrator 19.0.0, SVG Export Plug-In . SVG Version: 6.00 Build 0)  -->
<svg version="1.1" id="Layer_1" xmlns="http://www.w3.org/2000/svg" xmlns:xlink="http://www.w3.org/1999/xlink" x="0px" y="0px"
	 viewBox="0 0 511.999 511.999" style="enable-background:new 0 0 511.999 511.999;" xml:space="preserve">
<g>
	<ellipse style="fill:#FCDDC9;" cx="450.926" cy="255.999" rx="50.625" ry="54.387"/>
	<ellipse style="fill:#FCDDC9;" cx="61.074" cy="255.999" rx="50.625" ry="54.387"/>
	<path style="fill:#FCDDC9;" d="M448.261,255.997c-0.001-106.184-86.079-192.26-192.262-192.263
		c-106.183,0.003-192.258,86.08-192.26,192.263c0,106.18,86.078,192.26,192.26,192.263
		C362.182,448.258,448.261,362.178,448.261,255.997z"/>
</g>
<path d="M347.863,241.214c-3.043,0-6.058-1.323-8.123-3.87c-5.094-6.285-12.645-9.89-20.717-9.89
	c-8.071,0-15.621,3.604-20.714,9.889c-3.633,4.485-10.213,5.173-14.697,1.539c-4.484-3.633-5.173-10.213-1.54-14.696
	c9.079-11.204,22.547-17.63,36.95-17.63c14.403,0,27.872,6.425,36.952,17.628c3.634,4.483,2.946,11.063-1.538,14.697
	C352.502,240.451,350.175,241.214,347.863,241.214z"/>
<path d="M164.137,241.214c-2.311,0-4.638-0.764-6.573-2.332c-4.484-3.633-5.171-10.214-1.538-14.696
	c9.08-11.203,22.55-17.628,36.952-17.628c14.403,0,27.871,6.425,36.95,17.63c3.633,4.484,2.943,11.063-1.54,14.696
	s-11.063,2.945-14.697-1.539c-5.093-6.285-12.643-9.889-20.714-9.889c-8.072,0-15.623,3.605-20.717,9.89
	C170.195,239.892,167.178,241.214,164.137,241.214z"/>
<path style="fill:#F3437F;" d="M326.289,301.452c0,38.819-31.469,70.288-70.289,70.288c-38.819,0-70.289-31.469-70.289-70.288
	H326.289z"/>
<path style="fill:#D50707;" d="M221.963,362.952c10.085,5.593,21.686,8.79,34.036,8.79s23.951-3.196,34.037-8.79
	c-3.903-15.156-17.662-26.354-34.037-26.354S225.866,347.796,221.963,362.952z"/>
<path d="M326.289,291.004H185.711c-5.771,0-10.449,4.678-10.449,10.449c0,44.519,36.219,80.737,80.738,80.737
	s80.738-36.219,80.738-80.737C336.738,295.682,332.059,291.004,326.289,291.004z M235.666,357.724
	c4.509-6.536,12.025-10.678,20.334-10.678s15.825,4.142,20.334,10.678c-6.352,2.303-13.197,3.567-20.334,3.567
	C248.862,361.293,242.018,360.027,235.666,357.724z M294.468,347.251c-8.196-12.874-22.552-21.103-38.468-21.103
	s-30.271,8.229-38.468,21.103c-10.524-8.853-17.968-21.256-20.459-35.35h117.853C312.435,325.995,304.991,338.398,294.468,347.251z"
	/>
<path d="M450.931,191.165c-1.024,0-2.048,0.03-3.072,0.086C420.811,111.321,345.122,53.611,256.195,53.523l0.001-0.002
	c-0.022,0-0.044,0.001-0.066,0.001c-0.044,0-0.088-0.001-0.132-0.001c-89.01,0.002-164.789,57.74-191.857,137.729
	c-1.024-0.054-2.048-0.086-3.073-0.086C27.395,191.165,0,220.248,0,255.997c0,35.748,27.395,64.831,61.069,64.831
	c1.032,0,2.067-0.03,3.099-0.086c8.082,23.954,20.623,46.368,37.152,65.917c30.457,36.022,72.664,60.402,118.848,68.654
	c5.679,1.009,11.108-2.768,12.124-8.448c1.015-5.681-2.768-11.109-8.448-12.124c-86.581-15.468-149.422-90.64-149.422-178.742
	c0.002-79.893,51.87-147.898,123.699-172.119c-7.921,11.371-12.581,25.159-12.581,40.018c0,32.292,26.272,58.562,58.563,58.562
	c0.003,0,0.003,0,0.005,0c12.938,0,24.994-4.155,33.946-11.699c9.667-8.147,14.991-19.595,14.991-32.235
	c0-18.961-9.519-32.843-25.465-37.137c-5.569-1.499-11.306,1.8-12.806,7.374c-1.499,5.572,1.801,11.306,7.374,12.806
	c6.635,1.786,10,7.492,10,16.958c0,8.169-4.112,13.349-7.56,16.255c-5.189,4.373-12.461,6.78-20.48,6.78c0,0-0.002,0-0.003,0
	c-20.769,0-37.666-16.896-37.666-37.664c0-27.26,22.286-49.44,49.691-49.477C356.191,74.496,437.576,155.924,437.577,256
	c0,88.221-62.94,163.409-149.659,178.784c-5.682,1.007-9.472,6.43-8.465,12.112c0.899,5.066,5.305,8.627,10.277,8.627
	c0.605,0,1.219-0.052,1.836-0.162c46.244-8.198,88.516-32.562,119.029-68.602c16.572-19.574,29.141-42.021,37.236-66.015
	c1.032,0.055,2.067,0.086,3.099,0.086c33.674,0,61.069-29.083,61.069-64.831C512,220.248,484.605,191.165,450.931,191.165z
	 M20.898,255.997c0-23.212,16.548-42.265,37.418-43.82c-3.127,14.117-4.791,28.778-4.791,43.821c0,14.826,1.636,29.517,4.809,43.819
	C37.454,298.272,20.898,279.215,20.898,255.997z M453.668,299.817c3.172-14.302,4.809-28.991,4.809-43.818
	c0-15.043-1.663-29.704-4.791-43.821c20.869,1.554,37.417,20.607,37.417,43.819C491.102,279.215,474.545,298.272,453.668,299.817z"
	/>
<path d="M256.124,458.478c-0.044,0-0.089,0-0.134-0.001l-0.245-0.003c-5.77-0.072-10.389-4.809-10.317-10.579
	s4.762-10.4,10.579-10.317l0.245,0.003c5.771,0.072,10.389,4.809,10.317,10.579C266.498,453.885,261.834,458.478,256.124,458.478z"
	/>
<g>
</g>
<g>
</g>
<g>
</g>
<g>
</g>
<g>
</g>
<g>
</g>
<g>
</g>
<g>
</g>
<g>
</g>
<g>
</g>
<g>
</g>
<g>
</g>
<g>
</g>
<g>
</g>
<g>
</g>
</svg>
